<svg width="1402" height="785" viewBox="0 0 1402 785" fill="none" xmlns="http://www.w3.org/2000/svg">
<g style="mix-blend-mode:screen">
<g style="mix-blend-mode:screen">
<path d="M1254.48 52.2521L1253.96 52.4885H1253.58C1252.83 53.1989 1252.36 54.1559 1252.26 55.1844C1252.21 56.0765 1252.49 56.955 1253.05 57.6526C1253.61 58.3502 1254.4 58.8183 1255.28 58.9679H1256.28H1256.94H1257.32H1257.55C1257.92 58.646 1258.22 58.2542 1258.43 57.8155C1258.64 57.3769 1258.76 56.9004 1258.78 56.4141C1258.82 55.7242 1258.67 55.0372 1258.36 54.4227C1258.04 53.8082 1257.57 53.2878 1256.99 52.9141H1256.61H1256.04H1255.62H1254.67L1254.48 52.2521Z" fill="#E7B851"/>
</g>
<g style="mix-blend-mode:screen">
<path d="M1292.08 58.8261L1292.32 59.2046L1292.98 59.7721H1293.26H1293.64H1293.92C1294.56 59.884 1295.22 59.8097 1295.81 59.558C1296.41 59.3064 1296.92 58.8879 1297.28 58.3532C1297.71 57.7159 1297.93 56.9672 1297.93 56.2013C1297.93 55.4354 1297.71 54.6866 1297.28 54.0494L1296.86 53.6236L1296.1 53.198H1295.49H1294.16H1293.55L1292.79 53.6236L1292.36 54.0494C1291.93 54.5826 1291.64 55.2231 1291.53 55.9048C1291.42 56.5866 1291.5 57.2849 1291.75 57.9275L1292.08 58.8261Z" fill="#EADECF"/>
</g>
<g style="mix-blend-mode:screen">
<path d="M1155.02 0.0854869V0.700203V1.22052C1155.37 1.98737 1156 2.5906 1156.78 2.90706C1157.57 3.22352 1158.44 3.22926 1159.23 2.92308L1159.61 2.68666L1160.08 2.30837L1160.36 1.97726L1160.69 1.64616L1161.07 1.07864V0.653006V-0.245614V-0.624056V-1.19157V-1.56987C1160.88 -2.03921 1160.58 -2.46014 1160.2 -2.8032C1159.83 -3.14626 1159.38 -3.40327 1158.9 -3.55633C1158.43 -3.7132 1157.93 -3.76482 1157.44 -3.70759C1156.95 -3.65037 1156.48 -3.48568 1156.06 -3.22523L1155.3 -2.75225L1155.02 -2.37395L1154.69 -1.80644V-1.33345V-0.292955L1155.02 0.0854869Z" fill="#F9E59F"/>
</g>
<g style="mix-blend-mode:screen">
<path d="M1295.63 6.70692L1294.63 7.65274L1294.3 8.12572L1294.02 8.83512V9.35544C1294.01 9.92318 1294.13 10.4858 1294.37 11.0016C1294.6 11.5174 1294.95 11.9732 1295.39 12.3351C1295.8 12.6385 1296.27 12.8505 1296.77 12.9566C1297.26 13.0626 1297.78 13.0604 1298.28 12.9499H1298.65L1299.17 12.6662L1299.46 12.3823L1300.07 11.6729V11.2946V10.6797V10.2541C1300.09 9.43077 1299.84 8.62497 1299.36 7.95324C1298.88 7.28151 1298.21 6.77868 1297.42 6.5177H1296.72H1295.82L1295.63 6.70692Z" fill="#F9F6D2"/>
</g>
<g style="mix-blend-mode:screen">
<path d="M1220.85 12.2875H1221.37H1222.13H1222.65H1222.93C1223.49 12.267 1224.03 12.1094 1224.51 11.8288C1224.99 11.5482 1225.39 11.1533 1225.68 10.6795V10.1592V9.44976V8.92958L1225.2 7.60532V7.17968C1224.74 6.53322 1224.1 6.03898 1223.36 5.76074H1222.89H1222.37H1221.66H1221.18L1220.29 6.3756L1219.95 6.65936L1219.58 7.17968V7.69986C1219.36 8.08463 1219.22 8.50884 1219.16 8.94806C1219.11 9.38728 1219.14 9.83285 1219.26 10.2592C1219.38 10.6855 1219.58 11.0842 1219.85 11.4323C1220.13 11.7804 1220.47 12.071 1220.85 12.2875Z" fill="#DFCBB3"/>
</g>
<g style="mix-blend-mode:screen">
<path d="M1367.33 21.7466L1367.04 22.0777V22.3141L1366.62 23.0708V23.3546V23.7802V24.1113C1366.6 24.7516 1366.78 25.3817 1367.12 25.921C1367.47 26.4602 1367.97 26.8842 1368.56 27.1383C1369.25 27.4574 1370.02 27.5603 1370.77 27.4337C1371.52 27.3072 1372.22 26.9569 1372.77 26.4287L1373.1 25.9086L1373.38 25.0573V24.4424V23.1654V22.5978L1372.81 21.8884L1372.34 21.5101C1371.74 21.1789 1371.06 21.0051 1370.38 21.0051C1369.69 21.0051 1369.02 21.1789 1368.42 21.5101L1367.33 21.7466Z" fill="#53240B"/>
</g>
<g style="mix-blend-mode:screen">
<path d="M1233.24 207.522L1232.49 208.752V209.414V210.407V211.069L1232.77 211.637V212.015V212.535C1233.14 213.632 1233.79 214.612 1234.66 215.373L1235.37 215.657H1236.46H1237.26L1238.54 214.9L1239.01 214.285L1239.44 213.245V212.488V211.779V211.542C1239.36 211.012 1239.23 210.49 1239.06 209.981C1238.81 209.114 1238.32 208.338 1237.64 207.743C1236.96 207.148 1236.12 206.759 1235.23 206.623H1234.52L1233.62 207.049L1233.24 207.522Z" fill="#F9D46B"/>
</g>
<g style="mix-blend-mode:screen">
<path d="M1349.73 -5.35358C1348.8 -5.9691 1347.67 -6.20579 1346.56 -6.01564H1346.14L1345.57 -5.63734L1345.19 -5.2589L1344.63 -4.36028V-3.93464V-3.27259V-2.84695C1344.75 -2.19335 1344.99 -1.56775 1345.33 -1.00237L1345.62 -0.245626L1345.95 0.227355L1346.9 1.07863L1347.37 1.36239H1348.17H1348.74C1349.72 1.19965 1350.6 0.656641 1351.18 -0.148923C1351.77 -0.954486 1352.01 -1.95776 1351.86 -2.94148C1351.68 -3.46463 1351.41 -3.94732 1351.04 -4.36144C1350.67 -4.77555 1350.23 -5.11285 1349.73 -5.35358Z" fill="#F1E9E1"/>
</g>
<g style="mix-blend-mode:screen">
<path d="M1359.19 63.461V64.1704V64.4541V64.8798V65.1163L1359.71 65.731V65.9676L1360.09 66.2514H1360.37C1360.98 66.4943 1361.63 66.5698 1362.27 66.4699C1362.91 66.37 1363.52 66.0984 1364.02 65.6838C1364.49 65.2768 1364.86 64.7604 1365.08 64.1796C1365.31 63.5988 1365.39 62.9711 1365.32 62.3512C1365.25 61.7312 1365.03 61.1378 1364.68 60.6224C1364.33 60.1069 1363.86 59.685 1363.31 59.3935C1362.86 59.1832 1362.38 59.0741 1361.89 59.0741C1361.4 59.0741 1360.91 59.1832 1360.47 59.3935C1359.83 59.8307 1359.36 60.4692 1359.13 61.2066C1358.9 61.9441 1358.92 62.7379 1359.19 63.461Z" fill="#4B2008"/>
</g>
<g style="mix-blend-mode:screen">
<path d="M1316.44 51.4006V51.0223V50.3601L1316.15 49.8873L1315.82 49.5088V48.9413L1315.11 47.9008L1314.69 47.5225L1313.98 47.0969H1313.41C1312.92 47.0701 1312.42 47.1468 1311.96 47.322C1311.5 47.4973 1311.08 47.7672 1310.73 48.1146C1310.37 48.4619 1310.1 48.8791 1309.92 49.3391C1309.74 49.7991 1309.65 50.2919 1309.67 50.7859L1310.29 51.4953V52.1574L1311.23 53.3397V53.9073C1311.66 54.3574 1312.22 54.6732 1312.82 54.8163C1313.43 54.9593 1314.06 54.9237 1314.65 54.7134C1315.23 54.5031 1315.75 54.1272 1316.12 53.6316C1316.5 53.1359 1316.72 52.5417 1316.77 51.9209L1316.44 51.4006Z" fill="#EEE3D8"/>
</g>
<g style="mix-blend-mode:screen">
<path d="M1252.4 81.1021L1252.82 82.0481L1253.11 82.4265L1253.58 82.8993L1253.96 83.1359L1254.95 83.5615H1255.38H1256.04H1256.51C1257.03 83.3983 1257.51 83.1257 1257.91 82.7622C1258.31 82.3988 1258.63 81.953 1258.85 81.4551C1259.06 80.9572 1259.17 80.4188 1259.16 79.8764C1259.15 79.3341 1259.02 78.8005 1258.78 78.3117V78.0279L1258.45 77.6497L1257.93 77.224L1257.51 76.9875L1256.51 76.6565H1255.43H1254.95L1254.01 77.0821L1253.63 77.3659L1253.16 77.8861L1252.87 78.2645L1252.16 79.3995V79.8725V80.5819L1252.4 81.1021Z" fill="#9F5504"/>
</g>
<g style="mix-blend-mode:screen">
<path d="M1366.57 73.4402L1366.14 73.6767L1365.62 74.1497L1365.34 74.528L1364.82 75.5212V75.9941V76.7035V77.2239C1364.98 77.7766 1365.25 78.2881 1365.63 78.7216C1366 79.1551 1366.47 79.4997 1367 79.7305H1367.37H1368.7H1369.08H1369.36C1370.1 79.3187 1370.67 78.6471 1370.95 77.8442C1371.23 77.0413 1371.2 76.1636 1370.87 75.3793C1370.53 74.5773 1369.89 73.9338 1369.1 73.575C1368.3 73.2162 1367.4 73.168 1366.57 73.4402Z" fill="#F9DD85"/>
</g>
<g style="mix-blend-mode:screen">
<path d="M1371.3 43.2659L1370.59 44.4956V45.0631V45.8198V46.3402C1370.74 46.8864 1371.01 47.3902 1371.39 47.8098C1371.76 48.2293 1372.24 48.5524 1372.77 48.7521C1373.24 48.9308 1373.76 48.9982 1374.27 48.949C1374.77 48.8998 1375.26 48.7354 1375.7 48.4684L1376.03 48.1846L1376.41 47.759V47.4279L1376.74 46.5292V46.1036V45.4887V45.0631C1376.5 44.2673 1376.01 43.5683 1375.35 43.0668C1374.69 42.5654 1373.88 42.2873 1373.05 42.2727H1372.39L1371.58 42.6983L1371.3 43.2659Z" fill="#662B02"/>
</g>
<g style="mix-blend-mode:screen">
<path d="M1330.96 110.047L1330.67 110.614H1330.39C1330.11 111.256 1329.99 111.95 1330.01 112.648V113.452V113.83L1330.34 114.351L1330.63 114.634L1331.38 115.202H1333.13L1334.27 113.783V112.601V112.364V110.614L1333.09 109.243H1331.29L1330.53 109.905L1330.96 110.047Z" fill="#F9E59F"/>
</g>
<g style="mix-blend-mode:screen">
<path d="M1394.05 39.4348L1393.62 38.9146L1393.34 38.5835C1392.8 38.1133 1392.14 37.7852 1391.44 37.6283C1390.74 37.4715 1390.01 37.491 1389.32 37.6849C1388.71 37.9029 1388.15 38.2599 1387.7 38.7276C1387.25 39.1953 1386.91 39.7611 1386.72 40.3808C1386.48 41.1832 1386.43 42.0322 1386.59 42.8557C1386.74 43.6791 1387.1 44.4527 1387.62 45.1103C1388.16 45.6723 1388.83 46.0916 1389.57 46.3309C1390.32 46.5702 1391.11 46.6222 1391.87 46.4819H1392.3L1392.87 46.1508L1393.2 45.8197L1393.86 44.9684V44.5428V43.8806V43.5496V42.982C1394.14 41.9603 1394.14 40.8823 1393.86 39.8606L1394.05 39.4348Z" fill="#F9EEB8"/>
</g>
<g style="mix-blend-mode:screen">
<path d="M1388.33 45.8198V46.1509V46.6239V47.9481V48.3264C1388.38 48.9078 1388.6 49.4631 1388.94 49.9345L1389.27 50.3129L1389.93 50.6912H1390.41H1391.68H1392.02C1392.64 50.6386 1393.24 50.427 1393.77 50.0763L1394.1 49.698L1394.48 49.0832V48.6102V47.3333V46.7658L1394.81 46.4347L1395.42 45.536V45.0631V44.401V43.928C1395.19 43.0289 1394.71 42.2108 1394.05 41.5633L1393.39 41.0431H1393.01H1392.44H1391.07H1390.64L1390.08 41.2795L1389.7 41.5159C1389.22 41.9046 1388.83 42.3942 1388.56 42.95C1388.29 43.5058 1388.15 44.1144 1388.14 44.7321C1388.15 45.102 1388.21 45.4684 1388.33 45.8198Z" fill="#793903"/>
</g>
<g style="mix-blend-mode:screen">
<path d="M1244.64 220.717V220.197V219.393C1244.62 218.841 1244.48 218.3 1244.23 217.81C1243.97 217.319 1243.62 216.891 1243.18 216.555C1242.55 216.045 1241.79 215.74 1240.98 215.681C1240.18 215.622 1239.37 215.812 1238.68 216.225C1237.99 216.639 1237.44 217.255 1237.11 217.991C1236.78 218.727 1236.69 219.547 1236.84 220.339V220.859L1237.12 221.332V221.569L1238.21 222.42L1238.64 222.657H1239.3H1239.77H1240.91H1241.38L1241.95 222.325L1242.33 221.994L1243.18 220.907L1244.64 220.717Z" fill="#793903"/>
</g>
<g style="mix-blend-mode:screen">
<path d="M1226.81 166.564L1227.05 166.281V165.855V165.524V164.673V163.774V163.443C1226.49 162.409 1225.59 161.591 1224.52 161.12C1223.44 160.649 1222.23 160.551 1221.09 160.842L1220.38 161.267L1219.62 162.166L1219.34 162.97V164.531L1219.62 165.287L1220.29 166.186L1220.81 166.564L1221.23 166.801C1223.79 168.031 1225.54 167.983 1226.81 166.564Z" fill="#F9E59F"/>
</g>
<g style="mix-blend-mode:screen">
<path d="M1384.83 75.663L1384.31 75.3793H1383.74C1383.26 75.1341 1382.72 75.0065 1382.18 75.0065C1381.64 75.0065 1381.1 75.1341 1380.62 75.3793L1379.81 75.9468V76.1834L1379.58 76.5617V76.8454V77.5076V77.7914V78.5008C1379.65 79.0579 1379.85 79.5894 1380.18 80.0503C1380.5 80.5113 1380.92 80.8883 1381.42 81.1493C1382.02 81.4565 1382.69 81.6167 1383.36 81.6167C1384.03 81.6167 1384.7 81.4565 1385.3 81.1493C1385.78 80.9018 1386.19 80.5388 1386.5 80.0931C1386.8 79.6473 1386.99 79.1326 1387.05 78.5953V77.6022L1386.72 76.8454L1386.34 76.3252L1384.83 75.663Z" fill="#EADECF"/>
</g>
<g style="mix-blend-mode:screen">
<path d="M1274.68 84.1289L1275.05 83.7033V83.3248L1275.43 82.4264V82.0479V81.0074V80.3454V79.9669L1275.05 79.4467L1274.72 79.1156L1273.68 78.5008H1273.45C1272.97 78.285 1272.45 78.1877 1271.93 78.217H1271.32L1270.56 78.69L1270.14 79.163L1269.47 80.3926V80.8655V82.0479C1269.6 82.612 1269.86 83.1378 1270.23 83.5819C1270.6 84.026 1271.07 84.3757 1271.6 84.6019C1272.1 84.7665 1272.62 84.8263 1273.14 84.7774C1273.67 84.7286 1274.17 84.5722 1274.63 84.3181L1274.68 84.1289Z" fill="#E7D8C6"/>
</g>
<g style="mix-blend-mode:screen">
<path d="M1389.32 26.0031V25.5301L1388.99 24.868L1388.7 24.4898L1387.85 23.7802L1387.43 23.5438L1386.77 23.3074H1386.25C1385.67 23.3313 1385.11 23.4739 1384.6 23.7264C1384.09 23.9788 1383.63 24.3355 1383.27 24.7735V25.0099V25.341V25.5774V26.3815V27.3273C1383.45 28.1573 1383.94 28.8853 1384.65 29.3607C1385.35 29.8361 1386.21 30.0225 1387.05 29.8813C1387.83 29.6123 1388.49 29.0733 1388.9 28.3621C1389.32 27.6508 1389.47 26.8141 1389.32 26.0031Z" fill="#F9F6D2"/>
</g>
<g style="mix-blend-mode:screen">
<path d="M1325.47 213.954V212.961L1325.19 211.637V211.211C1324.83 210.09 1324.05 209.155 1323.01 208.61H1322.4H1321.26H1319.98L1319.13 209.083C1318.48 209.932 1318.2 211.002 1318.33 212.062C1318.4 212.585 1318.57 213.089 1318.84 213.544C1319.11 213.998 1319.47 214.395 1319.89 214.711C1320.3 215.048 1320.77 215.297 1321.28 215.442C1321.79 215.588 1322.32 215.626 1322.85 215.555C1323.37 215.484 1323.87 215.305 1324.33 215.029C1324.78 214.754 1325.17 214.388 1325.47 213.954Z" fill="#F9DD85"/>
</g>
<g style="mix-blend-mode:screen">
<path d="M1364.68 156.065C1364.67 156.554 1364.77 157.039 1364.97 157.488C1365.16 157.936 1365.45 158.338 1365.81 158.666C1366.42 159.289 1367.22 159.681 1368.08 159.776C1368.95 159.871 1369.82 159.663 1370.54 159.186H1370.87L1371.25 158.903L1371.68 158.382V157.957V157.626C1372 157.245 1372.24 156.797 1372.37 156.315C1372.5 155.832 1372.52 155.327 1372.44 154.835C1372.28 153.995 1371.81 153.248 1371.11 152.754C1370.39 152.141 1369.48 151.805 1368.53 151.805C1367.59 151.805 1366.67 152.141 1365.96 152.754C1365.51 153.174 1365.16 153.69 1364.94 154.263C1364.72 154.836 1364.63 155.452 1364.68 156.065Z" fill="#C47F1E"/>
</g>
<g style="mix-blend-mode:screen">
<path d="M1320.74 79.021L1321.17 79.4939L1321.55 79.7776C1322.11 80.1995 1322.78 80.4725 1323.48 80.5716C1324.19 80.6707 1324.9 80.593 1325.57 80.3453C1326.18 80.0977 1326.71 79.6985 1327.13 79.1854C1327.54 78.6724 1327.82 78.0623 1327.93 77.4129C1328.14 76.5809 1328.13 75.7106 1327.9 74.8834C1327.68 74.0562 1327.25 73.2991 1326.65 72.6833C1326.06 72.1647 1325.35 71.8023 1324.58 71.6288C1323.81 71.4554 1323.01 71.4765 1322.25 71.6902H1321.88L1321.31 72.1158L1321.02 72.4469L1320.46 73.3455V73.7712V74.4334V75.3792C1320.3 76.4348 1320.43 77.5123 1320.84 78.5007L1320.74 79.021Z" fill="#D6BDA1"/>
</g>
<g style="mix-blend-mode:screen">
<path d="M1253.96 158.855L1252.73 159.612L1252.26 160.132L1251.83 160.983V161.693V162.308V162.686V163.254C1251.65 164.387 1251.78 165.547 1252.21 166.612L1252.73 167.226L1253.63 167.794H1254.43H1255.9L1256.66 167.51L1257.46 166.801L1257.84 166.091V165.429V165.193C1257.99 164.683 1258.1 164.161 1258.17 163.632C1258.34 162.745 1258.25 161.829 1257.91 160.991C1257.58 160.153 1257.01 159.428 1256.28 158.902H1255.62H1254.62L1253.96 158.855Z" fill="#3B1703"/>
</g>
<g style="mix-blend-mode:screen">
<path d="M1394.05 60.9545C1394.54 60.6932 1394.97 60.3368 1395.32 59.9064C1395.67 59.4759 1395.93 58.9801 1396.08 58.4479V57.9749V57.2655V56.8399L1395.56 55.8466L1395.28 55.5156L1394.76 55.0898L1394.33 54.8534C1393.7 54.7025 1393.03 54.7025 1392.39 54.8534H1391.59H1391.02L1389.84 55.2791L1389.37 55.6102L1388.85 56.225L1388.56 56.698C1388.41 57.1638 1388.35 57.6556 1388.38 58.1455C1388.41 58.6354 1388.55 59.1136 1388.76 59.5529C1388.98 59.9922 1389.29 60.3839 1389.66 60.7056C1390.03 61.0272 1390.46 61.2725 1390.93 61.4275C1391.45 61.5607 1392 61.5874 1392.54 61.5062C1393.07 61.425 1393.59 61.2374 1394.05 60.9545Z" fill="#DFCBB3"/>
</g>
<g style="mix-blend-mode:screen">
<path d="M1345.71 52.6777L1346 52.0155V51.7317V51.0223V50.2656V49.9345V49.5088V49.2251C1345.64 48.6886 1345.14 48.2597 1344.56 47.9847C1343.97 47.7097 1343.33 47.599 1342.69 47.6644C1342.01 47.7302 1341.37 47.9813 1340.82 48.3903C1340.28 48.7992 1339.86 49.3499 1339.61 49.9818C1339.35 50.4872 1339.22 51.0463 1339.22 51.6135C1339.22 52.1807 1339.35 52.7398 1339.61 53.2452C1339.85 53.6805 1340.18 54.0564 1340.58 54.3434C1340.98 54.6305 1341.44 54.8211 1341.93 54.9006C1342.72 55.0356 1343.53 54.8866 1344.23 54.4798C1344.92 54.0731 1345.45 53.4348 1345.71 52.6777Z" fill="#F9DD85"/>
</g>
<g style="mix-blend-mode:screen">
<path d="M1309.63 101.865L1309.25 102.243L1308.92 103.047V103.52V104.04L1308.59 104.561L1308.16 105.743V106.31V107.162L1308.4 107.682C1308.66 108.101 1309.01 108.459 1309.42 108.732C1309.84 109.004 1310.3 109.185 1310.79 109.261C1311.28 109.337 1311.78 109.307 1312.26 109.174C1312.73 109.04 1313.17 108.805 1313.55 108.486V107.587L1314.12 107.304L1314.5 105.838L1314.88 105.412C1314.98 104.77 1314.9 104.111 1314.64 103.515C1314.38 102.919 1313.95 102.412 1313.41 102.054C1312.88 101.619 1312.23 101.366 1311.55 101.332C1310.87 101.298 1310.19 101.485 1309.63 101.865Z" fill="#C47F1E"/>
</g>
<g style="mix-blend-mode:screen">
<path d="M1396.75 115.77V115.344V114.634V114.114V113.026V112.601L1396.32 112.033L1395.94 111.702C1395.48 111.363 1394.94 111.135 1394.38 111.037C1393.81 110.939 1393.23 110.972 1392.68 111.135H1392.44H1392.11L1391.5 111.655L1391.26 111.939V112.175C1390.92 112.964 1390.9 113.849 1391.19 114.656C1391.48 115.462 1392.06 116.13 1392.82 116.526C1393.47 116.816 1394.2 116.899 1394.9 116.764C1395.6 116.628 1396.25 116.281 1396.75 115.77Z" fill="#6D341B"/>
</g>
<g style="mix-blend-mode:screen">
<path d="M1363.69 157.295L1363.12 156.68H1362.79L1362.22 156.443H1361.79H1360.8H1360.33H1359.76H1359.33L1358.81 156.822L1358.48 157.2L1358.1 157.815V158.24V159.376V159.848V160.511V160.936L1358.72 161.788L1359.05 162.119L1359.62 162.45H1360.04H1361.08H1361.56H1362.22H1362.65C1363.08 162.196 1363.45 161.855 1363.75 161.448C1364.04 161.04 1364.24 160.576 1364.35 160.085C1364.5 159.104 1364.26 158.102 1363.69 157.295Z" fill="#D59C38"/>
</g>
<g style="mix-blend-mode:screen">
<path d="M1398.4 178.719V179.334L1398.68 179.713C1399.1 180.288 1399.66 180.747 1400.31 181.045C1400.95 181.343 1401.66 181.47 1402.37 181.415C1403.02 181.352 1403.65 181.129 1404.2 180.766C1404.74 180.403 1405.19 179.911 1405.49 179.334C1405.91 178.573 1406.13 177.719 1406.13 176.851C1406.13 175.983 1405.91 175.129 1405.49 174.368C1405.11 173.682 1404.55 173.112 1403.86 172.721C1403.18 172.329 1402.4 172.13 1401.62 172.145H1401.14L1400.53 172.382L1400.1 172.618L1399.35 173.328L1399.06 173.706L1398.73 174.274V174.652V175.172C1398.25 176.122 1398.06 177.189 1398.16 178.246L1398.4 178.719Z" fill="#F9E59F"/>
</g>
<g style="mix-blend-mode:screen">
<path d="M1336.11 314.693L1334.93 315.45L1334.46 316.017L1334.08 316.916V317.578V318.24V318.618V319.139C1333.95 320.284 1334.13 321.445 1334.6 322.497L1335.12 323.111L1336.06 323.632H1336.82H1338.34L1339.04 323.301L1339.85 322.544L1340.23 321.835V321.125V320.889C1340.38 320.38 1340.47 319.857 1340.51 319.328C1340.66 318.427 1340.55 317.501 1340.19 316.662C1339.83 315.823 1339.24 315.106 1338.48 314.598H1337.77H1336.77L1336.11 314.693Z" fill="#E7B851"/>
</g>
<g style="mix-blend-mode:screen">
<path d="M1316.82 34.942V34.3745V33.9489C1316.34 33.0434 1315.52 32.3633 1314.55 32.057C1313.7 31.7833 1312.78 31.8352 1311.96 32.2023C1311.15 32.5694 1310.5 33.2256 1310.15 34.0434V34.3272V34.7055V35.9825V36.3608V36.5974C1310.36 37.0339 1310.65 37.4227 1311.02 37.7399C1311.39 38.0572 1311.81 38.296 1312.28 38.4418C1312.94 38.6465 1313.65 38.6712 1314.34 38.5134C1315.02 38.3557 1315.64 38.0209 1316.15 37.5432V37.2121L1316.44 36.6919V36.3136V35.3677L1316.82 34.942Z" fill="#3B1703"/>
</g>
<g style="mix-blend-mode:screen">
<path d="M1395.61 173.422L1396.32 174.179L1396.7 174.463L1397.27 174.747H1397.74H1398.78H1399.25H1399.87H1400.29C1400.74 174.414 1401.11 173.988 1401.38 173.498C1401.65 173.009 1401.81 172.466 1401.85 171.909C1401.9 171.389 1401.83 170.865 1401.65 170.375C1401.47 169.885 1401.18 169.44 1400.81 169.071V168.835L1400.39 168.551L1399.77 168.314H1399.3H1398.26H1397.79L1397.17 168.551L1396.79 168.787L1396.04 169.497L1395.75 169.875L1395.42 170.537V171.01V172.098V172.571L1395.66 173.233L1395.61 173.422Z" fill="#F9F6D2"/>
</g>
<g style="mix-blend-mode:screen">
<path d="M1400.48 226.771V226.014L1400.2 225.163V224.879V224.501V224.265C1399.71 223.84 1399.12 223.561 1398.48 223.46C1397.85 223.36 1397.19 223.442 1396.6 223.697C1395.9 224.008 1395.32 224.521 1394.91 225.17C1394.51 225.819 1394.3 226.574 1394.33 227.339V227.954L1394.76 228.71L1395.18 229.136L1396.32 229.845H1396.89H1397.79H1398.4C1399.05 229.612 1399.62 229.215 1400.07 228.693C1400.52 228.171 1400.82 227.541 1400.95 226.866L1400.48 226.771Z" fill="#F9E59F"/>
</g>
<path d="M754.636 -1340.04L671.029 -1256.44L2386.65 459.176L2470.26 375.569L754.636 -1340.04Z" fill="url(#paint0_linear_1_4168)"/>
<path d="M686.068 -1271.46L671.019 -1256.41L2386.64 459.201L2401.69 444.151L686.068 -1271.46Z" fill="url(#paint1_linear_1_4168)"/>
<path d="M286.922 -1044.81L281.704 -1039.59L2105.22 783.909L2110.43 778.692L286.922 -1044.81Z" fill="url(#paint2_linear_1_4168)"/>
<path d="M532.885 -1300.17L527.668 -1294.95L2351.18 528.546L2356.4 523.329L532.885 -1300.17Z" fill="url(#paint3_linear_1_4168)"/>
<path d="M828.494 -1461L823.277 -1455.78L2646.79 367.715L2652.01 362.498L828.494 -1461Z" fill="url(#paint4_linear_1_4168)"/>
<path d="M194.732 -1048L189.514 -1042.78L2013.03 780.715L2018.24 775.498L194.732 -1048Z" fill="url(#paint5_linear_1_4168)"/>
<path d="M5.21705 -1043.73L-6.10352e-05 -1038.51L1823.51 784.987L1828.73 779.769L5.21705 -1043.73Z" fill="url(#paint6_linear_1_4168)"/>
<path d="M640.382 -1421.94L635.165 -1416.72L2458.68 406.779L2463.89 401.561L640.382 -1421.94Z" fill="url(#paint7_linear_1_4168)"/>
<g style="mix-blend-mode:screen">
<path d="M1730.18 -291.063C1951.81 -69.4384 2116.49 125.134 2098.04 143.674C2079.6 162.213 1884.93 -2.51562 1663.3 -224.141C1441.68 -445.766 1276.95 -640.338 1295.44 -658.878C1313.93 -677.418 1508.55 -512.689 1730.18 -291.063Z" fill="url(#paint8_radial_1_4168)"/>
</g>
<g style="mix-blend-mode:screen">
<path d="M1462.96 -255.592C1684.59 -33.9671 1849.27 160.605 1830.82 179.145C1812.38 197.685 1617.71 32.9556 1396.08 -188.67C1174.46 -410.295 1009.73 -604.867 1028.22 -623.407C1046.71 -641.946 1241.33 -477.217 1462.96 -255.592Z" fill="url(#paint9_radial_1_4168)"/>
</g>
<g style="mix-blend-mode:screen">
<path d="M1448.3 -240.931C1572.92 -116.355 1665.53 -6.91412 1655.12 3.72729C1644.72 14.3687 1535.32 -78.4717 1410.7 -203.094C1286.07 -327.717 1193.52 -437.347 1203.92 -447.752C1214.33 -458.157 1323.72 -365.553 1448.3 -240.931Z" fill="url(#paint10_radial_1_4168)"/>
</g>
</g>
<defs>
<linearGradient id="paint0_linear_1_4168" x1="556.052" y1="-1448.33" x2="2616.12" y2="598.379" gradientUnits="userSpaceOnUse">
<stop stop-color="#F4EFEA"/>
<stop offset="0.06" stop-color="#F3EDE8"/>
<stop offset="0.53" stop-color="#EEE3D8"/>
<stop offset="0.99" stop-color="#E3D1BD"/>
</linearGradient>
<linearGradient id="paint1_linear_1_4168" x1="2190.2" y1="247.709" x2="1151" y2="-791.498" gradientUnits="userSpaceOnUse">
<stop stop-color="#F4E0AE"/>
<stop offset="0.2" stop-color="#EACD8C"/>
<stop offset="0.32" stop-color="#E5C47C"/>
<stop offset="0.36" stop-color="#E0BE77"/>
<stop offset="0.42" stop-color="#D2AD69"/>
<stop offset="0.5" stop-color="#BC9152"/>
<stop offset="0.54" stop-color="#AA7A40"/>
<stop offset="0.62" stop-color="#C09657"/>
<stop offset="0.72" stop-color="#D4AF6B"/>
<stop offset="0.8" stop-color="#E1BF78"/>
<stop offset="0.87" stop-color="#E5C47C"/>
</linearGradient>
<linearGradient id="paint2_linear_1_4168" x1="1891.31" y1="564.391" x2="786.768" y2="-540.163" gradientUnits="userSpaceOnUse">
<stop stop-color="#F4E0AE"/>
<stop offset="0.2" stop-color="#EACD8C"/>
<stop offset="0.32" stop-color="#E5C47C"/>
<stop offset="0.36" stop-color="#E0BE77"/>
<stop offset="0.42" stop-color="#D2AD69"/>
<stop offset="0.5" stop-color="#BC9152"/>
<stop offset="0.54" stop-color="#AA7A40"/>
<stop offset="0.62" stop-color="#C09657"/>
<stop offset="0.72" stop-color="#D4AF6B"/>
<stop offset="0.8" stop-color="#E1BF78"/>
<stop offset="0.87" stop-color="#E5C47C"/>
</linearGradient>
<linearGradient id="paint3_linear_1_4168" x1="2137.28" y1="309.028" x2="1032.73" y2="-795.526" gradientUnits="userSpaceOnUse">
<stop stop-color="#F4E0AE"/>
<stop offset="0.2" stop-color="#EACD8C"/>
<stop offset="0.32" stop-color="#E5C47C"/>
<stop offset="0.36" stop-color="#E0BE77"/>
<stop offset="0.42" stop-color="#D2AD69"/>
<stop offset="0.5" stop-color="#BC9152"/>
<stop offset="0.54" stop-color="#AA7A40"/>
<stop offset="0.62" stop-color="#C09657"/>
<stop offset="0.72" stop-color="#D4AF6B"/>
<stop offset="0.8" stop-color="#E1BF78"/>
<stop offset="0.87" stop-color="#E5C47C"/>
</linearGradient>
<linearGradient id="paint4_linear_1_4168" x1="2432.85" y1="148.164" x2="1328.31" y2="-956.39" gradientUnits="userSpaceOnUse">
<stop stop-color="#F4E0AE"/>
<stop offset="0.2" stop-color="#EACD8C"/>
<stop offset="0.32" stop-color="#E5C47C"/>
<stop offset="0.36" stop-color="#E0BE77"/>
<stop offset="0.42" stop-color="#D2AD69"/>
<stop offset="0.5" stop-color="#BC9152"/>
<stop offset="0.54" stop-color="#AA7A40"/>
<stop offset="0.62" stop-color="#C09657"/>
<stop offset="0.72" stop-color="#D4AF6B"/>
<stop offset="0.8" stop-color="#E1BF78"/>
<stop offset="0.87" stop-color="#E5C47C"/>
</linearGradient>
<linearGradient id="paint5_linear_1_4168" x1="1798.86" y1="561.331" x2="694.31" y2="-543.223" gradientUnits="userSpaceOnUse">
<stop stop-color="#F4E0AE"/>
<stop offset="0.2" stop-color="#EACD8C"/>
<stop offset="0.32" stop-color="#E5C47C"/>
<stop offset="0.36" stop-color="#E0BE77"/>
<stop offset="0.42" stop-color="#D2AD69"/>
<stop offset="0.5" stop-color="#BC9152"/>
<stop offset="0.54" stop-color="#AA7A40"/>
<stop offset="0.62" stop-color="#C09657"/>
<stop offset="0.72" stop-color="#D4AF6B"/>
<stop offset="0.8" stop-color="#E1BF78"/>
<stop offset="0.87" stop-color="#E5C47C"/>
</linearGradient>
<linearGradient id="paint6_linear_1_4168" x1="1609.58" y1="565.502" x2="505.03" y2="-539.052" gradientUnits="userSpaceOnUse">
<stop stop-color="#F4E0AE"/>
<stop offset="0.2" stop-color="#EACD8C"/>
<stop offset="0.32" stop-color="#E5C47C"/>
<stop offset="0.36" stop-color="#E0BE77"/>
<stop offset="0.42" stop-color="#D2AD69"/>
<stop offset="0.5" stop-color="#BC9152"/>
<stop offset="0.54" stop-color="#AA7A40"/>
<stop offset="0.62" stop-color="#C09657"/>
<stop offset="0.72" stop-color="#D4AF6B"/>
<stop offset="0.8" stop-color="#E1BF78"/>
<stop offset="0.87" stop-color="#E5C47C"/>
</linearGradient>
<linearGradient id="paint7_linear_1_4168" x1="2244.47" y1="187.428" x2="1139.93" y2="-917.126" gradientUnits="userSpaceOnUse">
<stop stop-color="#F4E0AE"/>
<stop offset="0.2" stop-color="#EACD8C"/>
<stop offset="0.32" stop-color="#E5C47C"/>
<stop offset="0.36" stop-color="#E0BE77"/>
<stop offset="0.42" stop-color="#D2AD69"/>
<stop offset="0.5" stop-color="#BC9152"/>
<stop offset="0.54" stop-color="#AA7A40"/>
<stop offset="0.62" stop-color="#C09657"/>
<stop offset="0.72" stop-color="#D4AF6B"/>
<stop offset="0.8" stop-color="#E1BF78"/>
<stop offset="0.87" stop-color="#E5C47C"/>
</linearGradient>
<radialGradient id="paint8_radial_1_4168" cx="0" cy="0" r="1" gradientUnits="userSpaceOnUse" gradientTransform="translate(1544.74 -105.523) rotate(-44.9998) scale(45.4149 567.686)">
<stop stop-color="#8C4703"/>
<stop offset="0.09" stop-color="#7B3F03"/>
<stop offset="0.49" stop-color="#391D01"/>
<stop offset="0.78" stop-color="#100800"/>
<stop offset="0.93"/>
</radialGradient>
<radialGradient id="paint9_radial_1_4168" cx="0" cy="0" r="1" gradientUnits="userSpaceOnUse" gradientTransform="translate(1283.51 -76.0471) rotate(-44.9998) scale(45.4149 567.686)">
<stop stop-color="#8C4703"/>
<stop offset="0.09" stop-color="#7B3F03"/>
<stop offset="0.49" stop-color="#391D01"/>
<stop offset="0.78" stop-color="#100800"/>
<stop offset="0.93"/>
</radialGradient>
<radialGradient id="paint10_radial_1_4168" cx="0" cy="0" r="1" gradientUnits="userSpaceOnUse" gradientTransform="translate(1674.41 -500.782) rotate(-44.9998) scale(28.3914 317.984)">
<stop stop-color="#F9EEB8"/>
<stop offset="0.04" stop-color="#EBE1AE"/>
<stop offset="0.23" stop-color="#A59D7A"/>
<stop offset="0.41" stop-color="#6A654E"/>
<stop offset="0.58" stop-color="#3C3A2D"/>
<stop offset="0.72" stop-color="#1B1A14"/>
<stop offset="0.85" stop-color="#070705"/>
<stop offset="0.93"/>
</radialGradient>
<radialGradient id="paint11_radial_1_4168" cx="0" cy="0" r="1" gradientUnits="userSpaceOnUse" gradientTransform="translate(1245.19 205.867) rotate(-44.9998) scale(45.4149 567.686)">
<stop stop-color="#8C4703"/>
<stop offset="0.09" stop-color="#7B3F03"/>
<stop offset="0.49" stop-color="#391D01"/>
<stop offset="0.78" stop-color="#100800"/>
<stop offset="0.93"/>
</radialGradient>
<radialGradient id="paint12_radial_1_4168" cx="0" cy="0" r="1" gradientUnits="userSpaceOnUse" gradientTransform="translate(1617.66 -201.387) rotate(-44.9998) scale(28.3914 317.984)">
<stop stop-color="#F9EEB8"/>
<stop offset="0.04" stop-color="#EBE1AE"/>
<stop offset="0.23" stop-color="#A59D7A"/>
<stop offset="0.41" stop-color="#6A654E"/>
<stop offset="0.58" stop-color="#3C3A2D"/>
<stop offset="0.72" stop-color="#1B1A14"/>
<stop offset="0.85" stop-color="#070705"/>
<stop offset="0.93"/>
</radialGradient>
</defs>
</svg>
