<svg width="40" height="32" viewBox="0 0 40 32" fill="none" xmlns="http://www.w3.org/2000/svg">
<path d="M37.0624 30.1589C34.7681 32.6137 30.8854 32.6137 28.4145 30.1589C26.1202 27.7041 26.1202 24.0219 28.591 21.7425C29.8264 20.5151 31.2383 20.1644 32.6502 19.8137C35.474 19.2877 39.7097 9.4685 26.1202 0.526031L26.4732 0C33.7092 3.68219 35.2976 7.18904 37.2389 10.3452C41.1217 17.5343 40.7687 26.6521 37.0624 30.1589ZM10.9422 30.1589C8.6479 32.6137 4.76517 32.6137 2.29434 30.1589C-9.53674e-07 27.7041 4.76837e-07 24.0219 2.47083 21.7425C3.70624 20.5151 5.11815 20.1644 6.53005 19.8137C9.35385 19.2877 13.5896 9.4685 0 0.526031L0.352974 0C7.58897 3.68219 9.17736 7.18904 11.1187 10.3452C15.0015 17.5343 14.6485 26.6521 10.9422 30.1589Z" fill="#9D875C"/>
</svg>
