<svg width="492" height="354" viewBox="0 0 492 354" fill="none" xmlns="http://www.w3.org/2000/svg">
<g style="mix-blend-mode:screen">
<g style="mix-blend-mode:screen">
<path d="M466.414 30.1166L465.912 29.8752H465.634H465.262L465.002 29.9867L464.798 30.1352H464.649L464.445 30.2281C464.035 30.408 463.682 30.697 463.424 31.0636L463.331 31.3608V31.7879L463.424 32.085L463.777 32.5492L464.037 32.7349L464.445 32.8463H464.761H465.021H465.114L465.708 32.6606C466.039 32.5292 466.326 32.3053 466.533 32.0155C466.74 31.7258 466.86 31.3824 466.878 31.0265V30.748L466.674 30.4137L466.414 30.1166Z" fill="#53240B"/>
</g>
<g style="mix-blend-mode:screen">
<path d="M414.419 10.0618L414.271 10.3032V10.4146V10.5817V11.1388V11.3245V11.4359C414.383 11.6654 414.557 11.8585 414.774 11.9932C414.991 12.1279 415.241 12.1986 415.496 12.1973C415.759 12.1996 416.018 12.1321 416.247 12.0016C416.475 11.8711 416.665 11.6823 416.796 11.4545C416.915 11.2612 416.985 11.0422 417.002 10.8159C417.018 10.5897 416.979 10.3628 416.889 10.1547C416.822 9.97477 416.712 9.81354 416.57 9.68436C416.428 9.55517 416.257 9.46177 416.072 9.41189C415.765 9.29916 415.427 9.30305 415.122 9.42283C414.817 9.54262 414.567 9.76996 414.419 10.0618Z" fill="#9F5504"/>
</g>
<g style="mix-blend-mode:screen">
<path d="M421.791 8.09385V8.35382V8.55808C421.863 8.88283 422.058 9.16706 422.335 9.35071C422.612 9.53436 422.95 9.60304 423.277 9.54225H423.444L423.648 9.43084L423.778 9.31943L423.927 9.20802L424.113 9.02232V8.87376L424.261 8.53953V8.39097V8.001C424.218 7.80935 424.136 7.6284 424.021 7.46891C423.906 7.30941 423.761 7.17463 423.593 7.07254C423.421 6.97939 423.231 6.92305 423.036 6.90706C422.841 6.89108 422.645 6.9158 422.46 6.97968L422.144 7.10968L421.996 7.22109L421.81 7.42536V7.59247L421.68 8.001L421.791 8.09385Z" fill="#E3D1BD"/>
</g>
<g style="mix-blend-mode:screen">
<path d="M465.838 23.2088C465.952 23.3948 466.103 23.5551 466.282 23.6798C466.461 23.8044 466.664 23.8906 466.878 23.933H467.064H467.324H467.509L467.862 23.6915L467.992 23.5616L468.159 23.3573V23.1902C468.212 22.9391 468.212 22.6799 468.159 22.4288V22.1132V21.8903L467.955 21.4447L467.825 21.259L467.565 21.0547H467.361C467.168 20.9989 466.966 20.9827 466.767 21.0071C466.568 21.0315 466.376 21.096 466.202 21.1966C466.029 21.2973 465.877 21.432 465.757 21.5927C465.637 21.7534 465.551 21.9368 465.504 22.1317C465.487 22.5186 465.605 22.8993 465.838 23.2088Z" fill="#D59C38"/>
</g>
<g style="mix-blend-mode:screen">
<path d="M492.541 66.1411L492.336 66.2339H492.188C491.893 66.5129 491.708 66.8886 491.668 67.2924C491.649 67.6427 491.76 67.9876 491.979 68.2615C492.198 68.5354 492.511 68.7192 492.856 68.7779H493.246H493.506H493.655H493.748C493.891 68.6515 494.008 68.4977 494.091 68.3255C494.174 68.1532 494.221 67.9661 494.23 67.7752C494.244 67.5043 494.186 67.2346 494.062 66.9934C493.938 66.7521 493.753 66.5478 493.525 66.4011H493.376H493.153H492.986H492.615L492.541 66.1411Z" fill="#E7B851"/>
</g>
<g style="mix-blend-mode:screen">
<path d="M489.978 15.02L490.09 15.2614L490.201 15.41C490.351 15.5687 490.532 15.6938 490.734 15.777C490.936 15.8602 491.153 15.8997 491.371 15.8928C491.578 15.8761 491.779 15.8162 491.961 15.7171C492.143 15.6179 492.303 15.4817 492.429 15.3171L492.522 15.15V14.8715V14.6858V14.2773V14.1101L492.392 13.8873L492.281 13.7387L491.984 13.4788H491.798H491.538H491.352H490.925H490.739L490.498 13.5902L490.349 13.7202L490.09 14.0358L489.997 14.1844L489.904 14.4258V15.0386L489.978 15.02Z" fill="#F9E59F"/>
</g>
<g style="mix-blend-mode:screen">
<path d="M455.012 9.3002L455.179 9.17023L455.365 8.9474L455.476 8.7617C455.601 8.58554 455.678 8.3804 455.701 8.16585C455.724 7.95131 455.691 7.73449 455.606 7.53612L455.495 7.35044L455.272 7.14618L455.105 7.05333L454.585 6.86763H454.492C454.183 6.85404 453.878 6.93855 453.619 7.10904L453.471 7.22045L453.359 7.38756L453.229 7.64753V7.83324V8.44603V8.68744L453.341 8.87311C453.524 9.13016 453.793 9.31406 454.098 9.39223C454.404 9.4704 454.728 9.43779 455.012 9.3002Z" fill="#D6BDA1"/>
</g>
<g style="mix-blend-mode:screen">
<path d="M473.656 22.9491V23.0976V23.2833V23.8033V23.9518C473.715 24.1737 473.838 24.3737 474.008 24.5275L474.176 24.6389L474.436 24.7317H474.64H475.141H475.29C475.525 24.6678 475.737 24.5391 475.903 24.3603V24.1932L476.014 23.9332V23.729V23.2276V22.9491L476.107 22.7819L476.274 22.392V22.2063V21.9277V21.7421C476.102 21.3618 475.817 21.044 475.457 20.8322L475.16 20.665H475.011H474.603L474.231 20.7579H474.083L473.879 20.8879L473.767 20.9993C473.61 21.1847 473.496 21.402 473.432 21.6361C473.368 21.8702 473.355 22.1155 473.396 22.3548C473.434 22.5708 473.523 22.7746 473.656 22.9491Z" fill="#EADECF"/>
</g>
<g style="mix-blend-mode:screen">
<path d="M453.489 45.6593V45.9006V46.1049C453.627 46.406 453.876 46.6428 454.183 46.7671C454.49 46.8914 454.833 46.8936 455.142 46.7734L455.29 46.6806L455.476 46.532L455.587 46.402L455.717 46.272L455.866 46.0492V45.8821V45.5293V45.3807V45.1579V45.0093C455.789 44.8251 455.672 44.6598 455.525 44.5251C455.377 44.3904 455.202 44.2895 455.012 44.2294C454.828 44.1678 454.633 44.1476 454.44 44.17C454.248 44.1925 454.062 44.2571 453.898 44.3594L453.601 44.5451L453.489 44.6936L453.359 44.9165V45.1022V45.5107L453.489 45.6593Z" fill="#F9E59F"/>
</g>
<g style="mix-blend-mode:screen">
<path d="M461.771 30.0979L461.344 29.8936H461.177H460.991V29.9865L460.843 29.8751C460.501 29.8548 460.162 29.946 459.877 30.135C459.656 30.3002 459.492 30.5306 459.409 30.7938C459.325 31.057 459.327 31.3397 459.413 31.602V31.7691L459.58 31.9734L459.728 32.1034L460.1 32.3077H460.23H460.434H460.564C460.955 32.3653 461.353 32.2723 461.678 32.0477C461.904 31.8892 462.074 31.665 462.168 31.4058C462.261 31.1465 462.271 30.8648 462.198 30.5993L462.087 30.4136L461.883 30.1722L461.771 30.0979Z" fill="#F9F6D2"/>
</g>
<g style="mix-blend-mode:screen">
<path d="M471.836 26.3102H472.059H472.282C472.492 26.351 472.709 26.3421 472.916 26.284C473.122 26.226 473.312 26.1205 473.47 25.9759L473.712 25.6788V25.5674V25.4003V25.2889V25.0103V24.8061V24.6947C473.641 24.4877 473.519 24.3023 473.356 24.1561C473.194 24.0098 472.996 23.9075 472.783 23.859C472.525 23.8036 472.258 23.8101 472.003 23.8779C471.748 23.9456 471.513 24.0728 471.316 24.249C471.156 24.3881 471.032 24.5637 470.955 24.7609C470.877 24.958 470.848 25.171 470.871 25.3817V25.4931V25.6417V25.7531L471.056 26.0317L471.242 26.1802L471.836 26.3102Z" fill="#8C4703"/>
</g>
<g style="mix-blend-mode:screen">
<path d="M439.952 4.78821L439.637 4.63965H439.265H439.08L438.541 4.80677L438.318 4.97391L438.077 5.271L437.965 5.51241V5.60526C437.907 5.80178 437.891 6.00828 437.918 6.21147C437.944 6.41467 438.013 6.61005 438.12 6.78499C438.227 6.95994 438.369 7.11057 438.537 7.22721C438.706 7.34385 438.897 7.4239 439.098 7.46219H439.284H439.525H439.692L440.027 7.27648L440.175 7.16507L440.342 6.97937V6.81225C440.516 6.4806 440.572 6.09973 440.502 5.732C440.431 5.36427 440.237 5.03149 439.952 4.78821Z" fill="#EADECF"/>
</g>
<g style="mix-blend-mode:screen">
<path d="M479.338 50.4503H479.542H479.839H480.044H480.155C480.373 50.4422 480.585 50.3803 480.773 50.2702C480.961 50.16 481.119 50.0049 481.232 49.8189V49.6146V49.3361V49.1319L481.046 48.6119V48.4448C480.866 48.191 480.614 47.9969 480.322 47.8877H480.137H479.932H479.654H479.468L479.115 48.1291L478.985 48.2405L478.837 48.4448V48.649C478.751 48.8001 478.696 48.9667 478.674 49.1391C478.653 49.3116 478.666 49.4865 478.713 49.6539C478.759 49.8213 478.839 49.9778 478.946 50.1145C479.053 50.2512 479.186 50.3653 479.338 50.4503Z" fill="#DFCBB3"/>
</g>
<g style="mix-blend-mode:screen">
<path d="M468.4 16.2082V16.4311V16.8025V17.0439L468.623 17.5267L468.79 17.7124L469.05 17.8981V18.0466V18.3623L469.162 18.5666L469.459 18.9194H469.552C469.745 19.1371 470.007 19.2814 470.294 19.3279C470.588 19.3785 470.89 19.322 471.146 19.1687C471.402 19.0153 471.594 18.7753 471.687 18.4923V18.3251V17.9166L471.557 17.5267V17.3967L471.446 17.2667L471.706 17.0624C471.907 16.8901 472.069 16.6767 472.182 16.4365C472.294 16.1963 472.353 15.9348 472.356 15.6697V15.4098L472.151 15.0941L471.947 14.9084L471.464 14.667H471.186H470.814L470.573 14.7598C470.409 14.8581 470.234 14.939 470.053 15.0013C469.379 15.1995 468.794 15.6262 468.4 16.2082Z" fill="#EEE3D8"/>
</g>
<g style="mix-blend-mode:screen">
<path d="M478.985 29.541L478.725 29.671L478.577 29.7824C478.388 29.9617 478.248 30.1851 478.168 30.4324C478 30.6791 477.926 30.9781 477.96 31.2747C477.995 31.5713 478.134 31.8457 478.354 32.0479C478.636 32.3109 479.008 32.4569 479.394 32.4564C479.56 32.4581 479.724 32.4261 479.877 32.3622C480.031 32.2984 480.169 32.2041 480.285 32.0851L480.434 31.7508V31.5651V31.4536V31.2123V31.0451V30.5438C480.417 30.3142 480.347 30.0917 480.229 29.8938L480.044 29.7267L479.728 29.5596H479.486H479.189L478.985 29.541Z" fill="#D59C38"/>
</g>
<g style="mix-blend-mode:screen">
<path d="M484.203 127.104L483.906 127.587V127.847V128.237V128.496L484.018 128.719V128.868V129.072C484.162 129.503 484.418 129.887 484.76 130.186L485.039 130.298H485.466H485.782L486.283 130.001L486.469 129.759L486.636 129.351V129.054V128.775V128.682C486.604 128.474 486.554 128.269 486.487 128.069C486.389 127.729 486.195 127.424 485.928 127.19C485.661 126.957 485.334 126.804 484.983 126.751H484.705L484.352 126.918L484.203 127.104Z" fill="#F9D46B"/>
</g>
<g style="mix-blend-mode:screen">
<path d="M450.221 14.0914L450.109 14.2957V14.4628C450.053 14.8595 450.145 15.2632 450.369 15.5955C450.572 15.8825 450.874 16.0847 451.216 16.1634C451.559 16.2422 451.918 16.1921 452.226 16.0226L452.338 15.9112L452.635 15.5212V15.3727V15.2613C452.698 14.8845 452.611 14.4981 452.394 14.1842C452.237 13.9611 452.024 13.7846 451.775 13.6734C451.527 13.5622 451.253 13.5205 450.982 13.5529H450.815L450.778 13.6643L450.648 13.7572L450.369 13.9985L450.221 14.0914Z" fill="#E7D8C6"/>
</g>
<g style="mix-blend-mode:screen">
<path d="M491.724 77.4684L491.891 77.8398L492.002 77.9884L492.188 78.174L492.336 78.2669L492.726 78.434H492.893H493.153H493.339C493.542 78.3699 493.729 78.2629 493.887 78.1202C494.045 77.9775 494.171 77.8025 494.256 77.607C494.34 77.4115 494.382 77.2001 494.377 76.9871C494.373 76.7742 494.323 76.5647 494.23 76.3728V76.2614L494.1 76.1128L493.896 75.9457L493.729 75.8528L493.339 75.7229H492.912H492.726L492.355 75.89L492.206 76.0014L492.021 76.2057L491.909 76.3542L491.631 76.7999V76.9856V77.2641L491.724 77.4684Z" fill="#9F5504"/>
</g>
<g style="mix-blend-mode:screen">
<path d="M488.678 132.285V132.081V131.765C488.671 131.548 488.615 131.336 488.515 131.143C488.416 130.951 488.275 130.782 488.103 130.651C487.857 130.45 487.556 130.331 487.241 130.307C486.925 130.284 486.609 130.359 486.338 130.521C486.066 130.683 485.85 130.926 485.721 131.215C485.592 131.504 485.554 131.825 485.614 132.136V132.341L485.726 132.526V132.619L486.153 132.953L486.32 133.046H486.58H486.766H487.211H487.397L487.62 132.916L487.768 132.786L488.103 132.359L488.678 132.285Z" fill="#793903"/>
</g>
<g style="mix-blend-mode:screen">
<path d="M481.678 111.023L481.77 110.912V110.745V110.615V110.281V109.928V109.798C481.549 109.392 481.199 109.071 480.776 108.886C480.352 108.701 479.879 108.662 479.431 108.776L479.152 108.944L478.855 109.296L478.744 109.612V110.225L478.855 110.522L479.115 110.875L479.319 111.023L479.486 111.116C480.489 111.599 481.176 111.58 481.678 111.023Z" fill="#F9E59F"/>
</g>
<g style="mix-blend-mode:screen">
<path d="M492.987 41.9267V41.6853H492.894H493.005C493.071 41.4169 493.071 41.1366 493.005 40.8682L492.875 40.5711L492.764 40.4412L492.597 40.2926H492.467L492.114 40.144L491.482 40.404L491.204 41.0725L491.39 41.4996V41.611L491.52 42.2981L492.114 42.688L492.801 42.5394L493.024 42.2052L492.987 41.9267Z" fill="#F9F6D2"/>
</g>
<g style="mix-blend-mode:screen">
<path d="M492.336 107.996L491.854 108.293L491.668 108.498L491.501 108.832V109.11V109.352V109.5V109.723C491.43 110.168 491.481 110.624 491.649 111.041L491.854 111.283L492.206 111.506H492.522H493.098L493.395 111.394L493.71 111.116L493.859 110.837V110.577V110.484C493.92 110.284 493.964 110.079 493.989 109.872C494.055 109.523 494.021 109.164 493.889 108.835C493.757 108.506 493.534 108.221 493.246 108.015H492.986H492.596L492.336 107.996Z" fill="#3B1703"/>
</g>
<path d="M296.289 -480.509L263.463 -447.683L937.06 225.91L969.887 193.084L296.289 -480.509Z" fill="url(#paint0_linear_1_5412)"/>
<path d="M269.368 -453.582L263.459 -447.673L937.056 225.919L942.965 220.011L269.368 -453.582Z" fill="url(#paint1_linear_1_5412)"/>
<path d="M112.653 -364.592L110.604 -362.544L826.561 353.408L828.609 351.36L112.653 -364.592Z" fill="url(#paint2_linear_1_5412)"/>
<path d="M209.224 -464.854L207.176 -462.805L923.133 253.146L925.181 251.098L209.224 -464.854Z" fill="url(#paint3_linear_1_5412)"/>
<path d="M325.288 -528L323.24 -525.952L1039.2 190L1041.24 187.952L325.288 -528Z" fill="url(#paint4_linear_1_5412)"/>
<path d="M76.4566 -365.846L74.4082 -363.797L790.365 352.154L792.413 350.106L76.4566 -365.846Z" fill="url(#paint5_linear_1_5412)"/>
<path d="M2.04837 -364.169L0 -362.12L715.957 353.831L718.005 351.783L2.04837 -364.169Z" fill="url(#paint6_linear_1_5412)"/>
<path d="M251.43 -512.663L249.382 -510.615L965.338 205.337L967.387 203.289L251.43 -512.663Z" fill="url(#paint7_linear_1_5412)"/>




</g>
<defs>
<linearGradient id="paint0_linear_1_5412" x1="218.32" y1="-523.026" x2="1027.16" y2="280.564" gradientUnits="userSpaceOnUse">
<stop stop-color="#F4EFEA"/>
<stop offset="0.06" stop-color="#F3EDE8"/>
<stop offset="0.53" stop-color="#EEE3D8"/>
<stop offset="0.99" stop-color="#E3D1BD"/>
</linearGradient>
<linearGradient id="paint1_linear_1_5412" x1="859.927" y1="142.882" x2="451.911" y2="-265.136" gradientUnits="userSpaceOnUse">
<stop stop-color="#F4E0AE"/>
<stop offset="0.2" stop-color="#EACD8C"/>
<stop offset="0.32" stop-color="#E5C47C"/>
<stop offset="0.36" stop-color="#E0BE77"/>
<stop offset="0.42" stop-color="#D2AD69"/>
<stop offset="0.5" stop-color="#BC9152"/>
<stop offset="0.54" stop-color="#AA7A40"/>
<stop offset="0.62" stop-color="#C09657"/>
<stop offset="0.72" stop-color="#D4AF6B"/>
<stop offset="0.8" stop-color="#E1BF78"/>
<stop offset="0.87" stop-color="#E5C47C"/>
</linearGradient>
<linearGradient id="paint2_linear_1_5412" x1="742.578" y1="267.22" x2="308.905" y2="-166.456" gradientUnits="userSpaceOnUse">
<stop stop-color="#F4E0AE"/>
<stop offset="0.2" stop-color="#EACD8C"/>
<stop offset="0.32" stop-color="#E5C47C"/>
<stop offset="0.36" stop-color="#E0BE77"/>
<stop offset="0.42" stop-color="#D2AD69"/>
<stop offset="0.5" stop-color="#BC9152"/>
<stop offset="0.54" stop-color="#AA7A40"/>
<stop offset="0.62" stop-color="#C09657"/>
<stop offset="0.72" stop-color="#D4AF6B"/>
<stop offset="0.8" stop-color="#E1BF78"/>
<stop offset="0.87" stop-color="#E5C47C"/>
</linearGradient>
<linearGradient id="paint3_linear_1_5412" x1="839.15" y1="166.958" x2="405.477" y2="-266.718" gradientUnits="userSpaceOnUse">
<stop stop-color="#F4E0AE"/>
<stop offset="0.2" stop-color="#EACD8C"/>
<stop offset="0.32" stop-color="#E5C47C"/>
<stop offset="0.36" stop-color="#E0BE77"/>
<stop offset="0.42" stop-color="#D2AD69"/>
<stop offset="0.5" stop-color="#BC9152"/>
<stop offset="0.54" stop-color="#AA7A40"/>
<stop offset="0.62" stop-color="#C09657"/>
<stop offset="0.72" stop-color="#D4AF6B"/>
<stop offset="0.8" stop-color="#E1BF78"/>
<stop offset="0.87" stop-color="#E5C47C"/>
</linearGradient>
<linearGradient id="paint4_linear_1_5412" x1="955.2" y1="103.799" x2="521.527" y2="-329.877" gradientUnits="userSpaceOnUse">
<stop stop-color="#F4E0AE"/>
<stop offset="0.2" stop-color="#EACD8C"/>
<stop offset="0.32" stop-color="#E5C47C"/>
<stop offset="0.36" stop-color="#E0BE77"/>
<stop offset="0.42" stop-color="#D2AD69"/>
<stop offset="0.5" stop-color="#BC9152"/>
<stop offset="0.54" stop-color="#AA7A40"/>
<stop offset="0.62" stop-color="#C09657"/>
<stop offset="0.72" stop-color="#D4AF6B"/>
<stop offset="0.8" stop-color="#E1BF78"/>
<stop offset="0.87" stop-color="#E5C47C"/>
</linearGradient>
<linearGradient id="paint5_linear_1_5412" x1="706.277" y1="266.018" x2="272.604" y2="-167.657" gradientUnits="userSpaceOnUse">
<stop stop-color="#F4E0AE"/>
<stop offset="0.2" stop-color="#EACD8C"/>
<stop offset="0.32" stop-color="#E5C47C"/>
<stop offset="0.36" stop-color="#E0BE77"/>
<stop offset="0.42" stop-color="#D2AD69"/>
<stop offset="0.5" stop-color="#BC9152"/>
<stop offset="0.54" stop-color="#AA7A40"/>
<stop offset="0.62" stop-color="#C09657"/>
<stop offset="0.72" stop-color="#D4AF6B"/>
<stop offset="0.8" stop-color="#E1BF78"/>
<stop offset="0.87" stop-color="#E5C47C"/>
</linearGradient>
<linearGradient id="paint6_linear_1_5412" x1="631.96" y1="267.656" x2="198.288" y2="-166.02" gradientUnits="userSpaceOnUse">
<stop stop-color="#F4E0AE"/>
<stop offset="0.2" stop-color="#EACD8C"/>
<stop offset="0.32" stop-color="#E5C47C"/>
<stop offset="0.36" stop-color="#E0BE77"/>
<stop offset="0.42" stop-color="#D2AD69"/>
<stop offset="0.5" stop-color="#BC9152"/>
<stop offset="0.54" stop-color="#AA7A40"/>
<stop offset="0.62" stop-color="#C09657"/>
<stop offset="0.72" stop-color="#D4AF6B"/>
<stop offset="0.8" stop-color="#E1BF78"/>
<stop offset="0.87" stop-color="#E5C47C"/>
</linearGradient>
<linearGradient id="paint7_linear_1_5412" x1="881.237" y1="119.214" x2="447.564" y2="-314.461" gradientUnits="userSpaceOnUse">
<stop stop-color="#F4E0AE"/>
<stop offset="0.2" stop-color="#EACD8C"/>
<stop offset="0.32" stop-color="#E5C47C"/>
<stop offset="0.36" stop-color="#E0BE77"/>
<stop offset="0.42" stop-color="#D2AD69"/>
<stop offset="0.5" stop-color="#BC9152"/>
<stop offset="0.54" stop-color="#AA7A40"/>
<stop offset="0.62" stop-color="#C09657"/>
<stop offset="0.72" stop-color="#D4AF6B"/>
<stop offset="0.8" stop-color="#E1BF78"/>
<stop offset="0.87" stop-color="#E5C47C"/>
</linearGradient>
<radialGradient id="paint8_radial_1_5412" cx="0" cy="0" r="1" gradientUnits="userSpaceOnUse" gradientTransform="translate(503.937 15.7676) rotate(-44.9998) scale(17.831 222.888)">
<stop stop-color="#8C4703"/>
<stop offset="0.09" stop-color="#7B3F03"/>
<stop offset="0.49" stop-color="#391D01"/>
<stop offset="0.78" stop-color="#100800"/>
<stop offset="0.93"/>
</radialGradient>
<radialGradient id="paint9_radial_1_5412" cx="0" cy="0" r="1" gradientUnits="userSpaceOnUse" gradientTransform="translate(657.417 -150.994) rotate(-44.9998) scale(11.1472 124.848)">
<stop stop-color="#F9EEB8"/>
<stop offset="0.04" stop-color="#EBE1AE"/>
<stop offset="0.23" stop-color="#A59D7A"/>
<stop offset="0.41" stop-color="#6A654E"/>
<stop offset="0.58" stop-color="#3C3A2D"/>
<stop offset="0.72" stop-color="#1B1A14"/>
<stop offset="0.85" stop-color="#070705"/>
<stop offset="0.93"/>
</radialGradient>
<radialGradient id="paint10_radial_1_5412" cx="0" cy="0" r="1" gradientUnits="userSpaceOnUse" gradientTransform="translate(488.892 126.454) rotate(-44.9998) scale(17.831 222.888)">
<stop stop-color="#8C4703"/>
<stop offset="0.09" stop-color="#7B3F03"/>
<stop offset="0.49" stop-color="#391D01"/>
<stop offset="0.78" stop-color="#100800"/>
<stop offset="0.93"/>
</radialGradient>
<radialGradient id="paint11_radial_1_5412" cx="0" cy="0" r="1" gradientUnits="userSpaceOnUse" gradientTransform="translate(635.133 -33.444) rotate(-44.9998) scale(11.1472 124.848)">
<stop stop-color="#F9EEB8"/>
<stop offset="0.04" stop-color="#EBE1AE"/>
<stop offset="0.23" stop-color="#A59D7A"/>
<stop offset="0.41" stop-color="#6A654E"/>
<stop offset="0.58" stop-color="#3C3A2D"/>
<stop offset="0.72" stop-color="#1B1A14"/>
<stop offset="0.85" stop-color="#070705"/>
<stop offset="0.93"/>
</radialGradient>
</defs>
</svg>
